# xmcd
#
# Track frame offsets: 
#        150
#        7962
#        15227
#        21257
#        31995
#        41157
#        49061
#        54645
#        64139
#        74948
#        83457
#        89518
#        98019
#        107157
#        113076
#        118663
#        127252
#        132112
#        140103
#        148943
#        158623
#        164757
#        173858
#        184468
#        193305
#
# Disc length: 2672 seconds
#
# Revision: 1
# Processed by: cddbd v1.5.2PL0 Copyright (c) Steve Scherf et al.
# Submitted via: ExactAudioCopy v0.99pb5
#
DISCID=730a6e19
DTITLE=Various Artist - Rural Rhythm Banjo Collection - 25 Bluegrass Banjo Fa
DTITLE=vorites
DYEAR=2005
DGENRE=Bluegrass
TTITLE0=Doug Dillard - Bully Of The Town
TTITLE1=Don Reno and Bill Harrell with the Tennessee Cut-Ups - Dill Pick
TTITLE1=le Rag
TTITLE2=Red Smiley and The Bluegrass Cut-Ups - Salt Creek
TTITLE3=Raymond Fairchild and The Maggie Valley Boys - Whoa Mule
TTITLE4=Mac Martin and The Dixie Travelers - Backtrackin'
TTITLE5=Hylo Brown and The Timberliners - Banjo On The Mountain
TTITLE6=Doug Dillard - Cumberland Gap
TTITLE7=Raymond Fairchild and The Maggie Valley Boys - She'll Be Coming 
TTITLE7=Around The Mountain
TTITLE8=Don Reno and Bill Harrell with the Tennessee Cut-Ups - Under The
TTITLE8=Double Eagle
TTITLE9=Mac Martin and The Dixie Travelers - I Don't Love Nobody
TTITLE10=Red Smiley and The Bluegrass Cut-Ups - Dear Old Dixie
TTITLE11=Raymond Fairchild and The Maggie Valley Boys - Maggie Valley Bo
TTITLE11=und
TTITLE12=Bobby Atkins - Flop Eared Mule
TTITLE13=Don Reno and Bill Harrell with the Tennessee Cut-Ups - Limehous
TTITLE13=e Blues
TTITLE14=Mac Martin and The Dixie Travelers - Sugar In The Gourd
TTITLE15=Raymond Fairchild and The Maggie Valley Boys - John Henry
TTITLE16=Hylo Brown - Maggie
TTITLE17=Red Smiley and The Bluegrass Cut-Ups - Silver Bells
TTITLE18=Mac Martin and The Dixie Travelers - Weary Lonesome Blues
TTITLE19=Raymond Fairchild and The Maggie Valley Boys - Tom Dooley
TTITLE20=Jim Greer and The Mac-O-Chee Valley Folks - Grandfather's Clock
TTITLE21=Mac Martin and The Dixie Travelers - East Tennessee Blues
TTITLE22=Bobby Smith and The Boys from Shilo - Jumpin' The Frets
TTITLE23=Doug Dillard - Home Sweet Home
TTITLE24=John McEuen - Early Arrival
EXTD=
EXTT0=
EXTT1=
EXTT2=
EXTT3=
EXTT4=
EXTT5=
EXTT6=
EXTT7=
EXTT8=
EXTT9=
EXTT10=
EXTT11=
EXTT12=
EXTT13=
EXTT14=
EXTT15=
EXTT16=
EXTT17=
EXTT18=
EXTT19=
EXTT20=
EXTT21=
EXTT22=
EXTT23=
EXTT24=
PLAYORDER=
